<svg width="268" height="319" viewBox="0 0 268 319" fill="none" xmlns="http://www.w3.org/2000/svg">
<path d="M130.723 248.514C130.723 281.54 122.255 309.484 84.1498 309.484V315.2H184.177V309.484C146.071 309.484 137.603 281.54 137.603 248.514" stroke="#AD8955" stroke-width="7" stroke-miterlimit="10"/>
<path d="M203.759 66.8711H64.0383V144.354H203.759V66.8711Z" stroke="#AD8955" stroke-width="7" stroke-miterlimit="10"/>
<path d="M240.276 144.994H28.0498V248.515H240.276V144.994Z" stroke="#AD8955" stroke-width="7" stroke-miterlimit="10"/>
<path d="M58.2166 144.994C58.2166 155.155 51.3363 163.412 42.8684 163.412C34.4005 163.412 27.5204 155.155 27.5204 144.994" stroke="#AD8955" stroke-width="7" stroke-miterlimit="10"/>
<path d="M88.3834 144.994C88.3834 155.155 81.5033 163.412 73.0354 163.412C64.5675 163.412 57.6874 155.155 57.6874 144.994" stroke="#AD8955" stroke-width="7" stroke-miterlimit="10"/>
<path d="M119.08 144.994C119.08 155.155 112.199 163.412 103.731 163.412C95.2636 163.412 88.3834 155.155 88.3834 144.994" stroke="#AD8955" stroke-width="7" stroke-miterlimit="10"/>
<path d="M149.246 144.994C149.246 155.155 142.366 163.412 133.898 163.412C125.43 163.412 118.55 155.155 118.55 144.994" stroke="#AD8955" stroke-width="7" stroke-miterlimit="10"/>
<path d="M179.413 144.994C179.413 155.155 172.533 163.412 164.065 163.412C155.597 163.412 148.717 155.155 148.717 144.994" stroke="#AD8955" stroke-width="7" stroke-miterlimit="10"/>
<path d="M210.109 144.994C210.109 155.155 203.229 163.412 194.761 163.412C186.293 163.412 179.413 155.155 179.413 144.994" stroke="#AD8955" stroke-width="7" stroke-miterlimit="10"/>
<path d="M240.276 144.994C240.276 155.155 233.396 163.412 224.928 163.412C216.46 163.412 209.58 155.155 209.58 144.994" stroke="#AD8955" stroke-width="7" stroke-miterlimit="10"/>
<path d="M88.3835 66.8711C88.3835 77.0327 81.5034 85.2891 73.0355 85.2891C69.3308 85.2891 66.1554 84.0189 63.5092 81.4785" stroke="#AD8955" stroke-width="7" stroke-miterlimit="10"/>
<path d="M119.08 66.8711C119.08 77.0327 112.199 85.2891 103.732 85.2891C95.2636 85.2891 88.3835 77.0327 88.3835 66.8711" stroke="#AD8955" stroke-width="7" stroke-miterlimit="10"/>
<path d="M149.247 66.8711C149.247 77.0327 142.366 85.2891 133.899 85.2891C125.431 85.2891 118.55 77.0327 118.55 66.8711" stroke="#AD8955" stroke-width="7" stroke-miterlimit="10"/>
<path d="M179.413 66.8711C179.413 77.0327 172.533 85.2891 164.065 85.2891C155.598 85.2891 148.717 77.0327 148.717 66.8711" stroke="#AD8955" stroke-width="7" stroke-miterlimit="10"/>
<path d="M203.759 81.4785C201.112 84.0189 197.937 85.2891 194.232 85.2891C185.764 85.2891 178.884 77.0327 178.884 66.8711" stroke="#AD8955" stroke-width="7" stroke-miterlimit="10"/>
<path d="M28.0498 196.436H240.276" stroke="#AD8955" stroke-width="7" stroke-miterlimit="10"/>
<path d="M28.0498 208.501H240.276" stroke="#AD8955" stroke-width="7" stroke-miterlimit="10"/>
<path d="M0 248.514H267.797" stroke="#AD8955" stroke-width="7" stroke-miterlimit="10"/>
<path d="M163.007 21.7829C163.007 12.2564 156.656 4 148.188 4C139.72 4 133.369 11.6213 133.369 21.7829C133.369 12.2564 127.018 4 118.55 4C110.083 4 103.732 11.6213 103.732 21.7829C103.732 43.3764 132.84 57.9838 132.84 57.9838C133.898 57.9838 163.007 43.3764 163.007 21.7829Z" stroke="#AD8955" stroke-width="7" stroke-miterlimit="10"/>
</svg>
