<svg width="311" height="400" viewBox="0 0 311 400" fill="none" xmlns="http://www.w3.org/2000/svg">
<path d="M295.117 395.642H15.983C9.63904 395.642 4 389.721 4 381.263V198.554C4 190.941 8.93416 184.174 15.983 184.174H295.117C301.461 184.174 307.1 190.095 307.1 198.554V381.263C307.1 389.721 301.461 395.642 295.117 395.642Z" stroke="#AD8955" stroke-width="7" stroke-miterlimit="10" stroke-linecap="round" stroke-linejoin="round"/>
<path d="M75.8978 257.766H33.6048C30.0804 257.766 27.9658 254.383 27.9658 250.999V221.394C27.9658 217.164 30.7853 214.627 33.6048 214.627H75.8978C79.4222 214.627 81.5369 218.01 81.5369 221.394V250.999C81.5369 255.229 78.7174 257.766 75.8978 257.766Z" stroke="#AD8955" stroke-width="7" stroke-miterlimit="10" stroke-linecap="round" stroke-linejoin="round"/>
<path d="M155.55 363.499C186.304 363.499 211.236 333.581 211.236 296.675C211.236 259.769 186.304 229.851 155.55 229.851C124.795 229.851 99.864 259.769 99.864 296.675C99.864 333.581 124.795 363.499 155.55 363.499Z" stroke="#AD8955" stroke-width="7" stroke-miterlimit="10" stroke-linecap="round" stroke-linejoin="round"/>
<path d="M155.55 344.892C133.698 344.892 115.371 323.745 115.371 296.677C115.371 270.455 132.994 248.462 155.55 248.462C177.401 248.462 195.728 269.609 195.728 296.677C195.728 322.899 178.106 344.892 155.55 344.892Z" stroke="#AD8955" stroke-width="7" stroke-miterlimit="10" stroke-linecap="round" stroke-linejoin="round"/>
<path d="M221.104 185.019H90.7006L100.569 153.722H211.236L221.104 185.019Z" stroke="#AD8955" stroke-width="7" stroke-miterlimit="10" stroke-linecap="round" stroke-linejoin="round"/>
<path d="M276.085 185.018H250.004V168.947C250.004 160.488 255.643 152.875 263.397 152.875C270.446 152.875 276.789 159.642 276.789 168.947V185.018H276.085Z" stroke="#AD8955" stroke-width="7" stroke-miterlimit="10" stroke-linecap="round" stroke-linejoin="round"/>
<path d="M209.826 133.421H101.979C97.0447 133.421 93.5203 129.192 93.5203 123.271V70.8264C93.5203 64.9053 97.0447 60.6758 101.979 60.6758H209.826C214.76 60.6758 218.285 64.9053 218.285 70.8264V123.271C218.285 128.346 214.76 133.421 209.826 133.421Z" stroke="#AD8955" stroke-width="7" stroke-miterlimit="10" stroke-linecap="round" stroke-linejoin="round"/>
<path d="M93.5203 99.5858H112.552L127.355 86.8977L142.157 100.432L156.255 86.8977L170.352 99.5858L185.86 86.0518L199.253 98.7399H218.285" stroke="#AD8955" stroke-width="7" stroke-miterlimit="10" stroke-linecap="round" stroke-linejoin="round"/>
<path d="M43.4733 89.4336L69.554 90.2796" stroke="#AD8955" stroke-width="7" stroke-miterlimit="10" stroke-linecap="round" stroke-linejoin="round"/>
<path d="M46.9977 36.1416L73.7832 55.5967" stroke="#AD8955" stroke-width="7" stroke-miterlimit="10" stroke-linecap="round" stroke-linejoin="round"/>
<path d="M80.832 4L94.2248 31.068" stroke="#AD8955" stroke-width="7" stroke-miterlimit="10" stroke-linecap="round" stroke-linejoin="round"/>
</svg>
