<svg width="459" height="361" viewBox="0 0 459 361" fill="none" xmlns="http://www.w3.org/2000/svg">
<path d="M415.704 239.05C439.616 171.922 405.895 97.6407 340.387 73.1377C274.88 48.6347 202.391 83.1889 178.479 150.317C154.567 217.444 188.288 291.726 253.796 316.229C319.303 340.732 391.792 306.178 415.704 239.05Z" stroke="#AD8955" stroke-width="7" stroke-miterlimit="10"/>
<path d="M385.159 155.221C406.466 205.358 384.37 263.582 335.443 285.416C286.516 307.25 229.697 284.607 208.39 234.47C187.083 184.333 209.179 126.109 258.106 104.275C307.034 81.632 363.852 105.083 385.159 155.221Z" stroke="#AD8955" stroke-width="7" stroke-miterlimit="10"/>
<path d="M231.275 304.823C208.39 336.361 172.089 355.769 130.264 355.769C60.8188 355.769 4 297.545 4 226.383C4 155.22 60.8188 96.9963 130.264 96.9963C153.939 96.9963 176.824 103.466 195.764 115.596" stroke="#AD8955" stroke-width="7" stroke-miterlimit="10"/>
<path d="M219.438 135.003C242.323 158.454 256.528 190.801 256.528 227.191C256.528 244.982 253.371 261.964 246.269 277.328" stroke="#AD8955" stroke-width="7" stroke-miterlimit="10"/>
<path d="M208.39 286.223C191.029 310.483 162.619 325.848 131.053 325.848C77.391 325.848 34.7769 281.371 34.7769 227.191C34.7769 172.201 78.1801 128.533 131.053 128.533C149.993 128.533 166.565 134.194 181.559 143.089" stroke="#AD8955" stroke-width="7" stroke-miterlimit="10"/>
<path d="M205.233 164.116C219.438 181.098 227.33 203.741 227.33 227.192C227.33 237.705 225.751 247.408 222.595 256.304" stroke="#AD8955" stroke-width="7" stroke-miterlimit="10"/>
<path d="M213.125 18.5564L203.655 48.477L232.065 82.4409" stroke="#AD8955" stroke-width="7" stroke-miterlimit="10" stroke-linecap="round" stroke-linejoin="round"/>
<path d="M229.697 37.1553L280.203 14.5127L244.691 4L220.227 15.3213L195.764 25.8339L179.191 59.7978L229.697 37.1553Z" stroke="#AD8955" stroke-width="7" stroke-miterlimit="10" stroke-linecap="round" stroke-linejoin="round"/>
<path d="M271.522 67.0764L280.203 14.5132L229.697 37.1558L179.191 59.7984L222.595 88.9103" stroke="#AD8955" stroke-width="7" stroke-miterlimit="10" stroke-linecap="round" stroke-linejoin="round"/>
<path d="M228.119 11.2771L255.739 25.0245L260.474 69.5011" stroke="#AD8955" stroke-width="7" stroke-miterlimit="10" stroke-linecap="round" stroke-linejoin="round"/>
</svg>
