<svg width="200" height="274" viewBox="0 0 200 274" fill="none" xmlns="http://www.w3.org/2000/svg">
<path d="M1.79576 59.6093C1.79566 59.6093 1.79635 59.6068 1.79813 59.6022C1.79675 59.6071 1.79586 59.6094 1.79576 59.6093ZM1.86894 59.4833C1.8781 59.471 1.88832 59.458 1.89971 59.4444C1.92016 59.4198 1.94292 59.3952 1.96792 59.3708C2.04986 59.2908 2.15572 59.2139 2.28221 59.1555C2.4467 59.0796 2.58529 59.0628 2.66 59.0628C2.73471 59.0628 2.8733 59.0796 3.03779 59.1555C3.16428 59.2139 3.27014 59.2908 3.35208 59.3708C3.27014 59.4507 3.16428 59.5276 3.03779 59.586C2.8733 59.6619 2.73471 59.6787 2.66 59.6787C2.25682 59.6787 2.01932 59.5687 1.95923 59.5386C1.91569 59.5169 1.88963 59.4989 1.8769 59.4894C1.87392 59.4872 1.87128 59.4852 1.86894 59.4833ZM3.52424 59.6093C3.52414 59.6094 3.52326 59.6071 3.52187 59.6022C3.52365 59.6068 3.52434 59.6093 3.52424 59.6093ZM3.52187 59.1393C3.52326 59.1344 3.52414 59.1321 3.52424 59.1322C3.52434 59.1323 3.52365 59.1347 3.52187 59.1393Z" stroke="#AD8955" stroke-width="7"/>
<path d="M76.0759 184.501C76.0759 197.907 60.6479 208.76 41.4959 208.76C22.3439 208.76 6.91589 197.907 6.91589 184.501C6.91589 171.094 22.3439 160.241 41.4959 160.241C60.6479 160.241 76.0759 171.094 76.0759 184.501Z" stroke="#AD8955" stroke-width="7" stroke-miterlimit="10"/>
<path d="M136.192 270.048C155.29 270.048 170.772 259.187 170.772 245.789C170.772 232.391 155.29 221.529 136.192 221.529C117.094 221.529 101.612 232.391 101.612 245.789C101.612 259.187 117.094 270.048 136.192 270.048Z" stroke="#AD8955" stroke-width="7" stroke-miterlimit="10"/>
<path d="M76.0759 184.502V30.0063L170.772 85.5481V240.682" stroke="#AD8955" stroke-width="7" stroke-miterlimit="10"/>
<path d="M76.0759 54.9038L170.772 110.446" stroke="#AD8955" stroke-width="7" stroke-miterlimit="10"/>
<path d="M24.4719 82.9937C24.4719 95.7619 15.96 105.976 5.32001 105.976C15.96 105.976 24.4719 116.191 24.4719 128.959C24.4719 116.191 32.9839 105.976 43.6239 105.976C32.9839 105.976 24.4719 95.1235 24.4719 82.9937Z" stroke="#AD8955" stroke-width="7" stroke-miterlimit="10" stroke-linecap="round" stroke-linejoin="round"/>
<path d="M163.856 7.02295C163.856 19.7912 155.344 30.0058 144.704 30.0058C155.344 30.0058 163.856 40.2203 163.856 52.9885C163.856 40.2203 172.368 30.0058 183.008 30.0058C172.368 30.0058 163.856 19.7912 163.856 7.02295Z" stroke="#AD8955" stroke-width="7" stroke-miterlimit="10" stroke-linecap="round" stroke-linejoin="round"/>
<path d="M28.528 29.7652C28.5281 29.7653 28.5274 29.7677 28.5256 29.7723C28.527 29.7675 28.5279 29.7652 28.528 29.7652ZM28.3558 30.0038C28.2883 30.0697 28.2046 30.1335 28.1065 30.1865C27.9444 30.186 27.7962 30.1703 27.6638 30.146C27.4901 30.1141 27.3436 30.0676 27.2284 30.0215C27.2137 30.0156 27.1994 30.0097 27.1855 30.0038C27.1342 29.9819 27.0877 29.9597 27.0459 29.9378C27.1144 29.8823 27.1948 29.8306 27.286 29.7886C27.4505 29.7127 27.589 29.6959 27.6638 29.6959C27.7385 29.6959 27.8771 29.7127 28.0415 29.7886C28.168 29.847 28.2739 29.9238 28.3558 30.0038ZM26.8019 30.2353C26.8005 30.2401 26.7996 30.2424 26.7995 30.2424C26.7994 30.2423 26.8001 30.2399 26.8019 30.2353Z" stroke="#AD8955" stroke-width="7"/>
<path d="M135.328 3.43062C135.328 3.43055 135.328 3.42812 135.33 3.42353C135.329 3.42839 135.328 3.43068 135.328 3.43062ZM135.814 3.40728C135.688 3.34889 135.582 3.27204 135.5 3.19206C135.582 3.11208 135.688 3.03522 135.814 2.97683C135.979 2.90092 136.117 2.88411 136.192 2.88411C136.267 2.88411 136.405 2.90092 136.57 2.97683C136.696 3.03522 136.802 3.11207 136.884 3.19206C136.802 3.27204 136.696 3.34889 136.57 3.40728C136.405 3.4832 136.267 3.5 136.192 3.5C136.117 3.5 135.979 3.4832 135.814 3.40728ZM137.056 3.43062C137.056 3.43068 137.055 3.42839 137.054 3.42353C137.056 3.42812 137.056 3.43055 137.056 3.43062ZM137.054 2.96058C137.055 2.95573 137.056 2.95343 137.056 2.95349C137.056 2.95356 137.056 2.95599 137.054 2.96058ZM135.33 2.96058C135.328 2.95599 135.328 2.95356 135.328 2.95349C135.328 2.95343 135.329 2.95572 135.33 2.96058Z" stroke="#AD8955" stroke-width="7"/>
<path d="M197.293 71.0416C197.147 71.0308 196.995 71.0041 196.84 70.9574C196.799 70.945 196.758 70.9313 196.717 70.916C196.672 70.8997 196.63 70.8825 196.59 70.8646C196.49 70.8202 196.403 70.7717 196.327 70.723C196.369 70.6964 196.414 70.6716 196.462 70.6494C196.627 70.5735 196.765 70.5567 196.84 70.5567C196.915 70.5567 197.053 70.5735 197.218 70.6494C197.344 70.7078 197.45 70.7847 197.532 70.8646C197.467 70.9282 197.387 70.9897 197.293 71.0416ZM197.704 71.1032C197.704 71.1033 197.703 71.1014 197.702 71.0973L197.702 71.0973C197.704 71.1011 197.704 71.1031 197.704 71.1032ZM197.704 70.6261C197.704 70.6261 197.704 70.6286 197.702 70.6332C197.703 70.6283 197.704 70.626 197.704 70.6261ZM195.976 71.1032C195.976 71.1031 195.976 71.1007 195.978 71.0961C195.977 71.101 195.976 71.1033 195.976 71.1032Z" stroke="#AD8955" stroke-width="7"/>
<path d="M132.668 128.56C132.668 128.56 132.668 128.558 132.67 128.553C132.669 128.558 132.668 128.56 132.668 128.56ZM132.741 128.434C132.75 128.422 132.76 128.409 132.772 128.395C132.792 128.371 132.815 128.346 132.84 128.321C132.922 128.241 133.028 128.165 133.154 128.106C133.319 128.03 133.457 128.014 133.532 128.014C133.607 128.014 133.745 128.03 133.91 128.106C134.036 128.165 134.142 128.241 134.224 128.321C134.142 128.401 134.036 128.478 133.91 128.537C133.745 128.613 133.607 128.629 133.532 128.629C133.129 128.629 132.891 128.519 132.831 128.489C132.788 128.468 132.762 128.45 132.749 128.44C132.746 128.438 132.743 128.436 132.741 128.434ZM134.396 128.56C134.396 128.56 134.395 128.558 134.394 128.553C134.396 128.558 134.396 128.56 134.396 128.56ZM134.394 128.09C134.395 128.085 134.396 128.083 134.396 128.083C134.396 128.083 134.396 128.085 134.394 128.09Z" stroke="#AD8955" stroke-width="7"/>
</svg>
