<svg width="194" height="194" viewBox="0 0 194 194" fill="none" xmlns="http://www.w3.org/2000/svg">
<circle cx="96.6185" cy="96.6185" r="96.6185" fill="#C4DBD7"/>
<path d="M82.9156 110.594C82.9156 117.75 74.6806 123.543 64.4578 123.543C54.235 123.543 46 117.75 46 110.594C46 103.438 54.235 97.6448 64.4578 97.6448C74.6806 97.6448 82.9156 103.438 82.9156 110.594Z" stroke="#AD8955" stroke-width="5" stroke-miterlimit="10"/>
<path d="M115.004 156.258C125.198 156.258 133.462 150.46 133.462 143.308C133.462 136.157 125.198 130.359 115.004 130.359C104.81 130.359 96.5459 136.157 96.5459 143.308C96.5459 150.46 104.81 156.258 115.004 156.258Z" stroke="#AD8955" stroke-width="5" stroke-miterlimit="10"/>
<path d="M82.9156 110.594V28.1292L133.462 57.7757V140.582" stroke="#AD8955" stroke-width="5" stroke-miterlimit="10"/>
<path d="M82.9156 41.4183L133.462 71.0649" stroke="#AD8955" stroke-width="5" stroke-miterlimit="10"/>
</svg>
